solid shape, STL ascii file, created with Open CASCADE Technology
 facet normal 0.577350 -0.577350 0.577350
   outer loop
     vertex 50.000000 -49.500000 49.500000
     vertex 49.500000 -49.500000 50.000000
     vertex 49.500000 -50.000000 49.500000
   endloop
 endfacet
 facet normal -0.707107 0.000000 0.707107
   outer loop
     vertex -50.000000 -49.500000 49.500000
     vertex -49.500000 49.500000 50.000000
     vertex -50.000000 49.500000 49.500000
   endloop
 endfacet
 facet normal -0.707107 0.000000 0.707107
   outer loop
     vertex -49.500000 -49.500000 50.000000
     vertex -49.500000 49.500000 50.000000
     vertex -50.000000 -49.500000 49.500000
   endloop
 endfacet
 facet normal -0.577350 -0.577350 0.577350
   outer loop
     vertex -49.500000 -49.500000 50.000000
     vertex -50.000000 -49.500000 49.500000
     vertex -49.500000 -50.000000 49.500000
   endloop
 endfacet
 facet normal -1.000000 0.000000 0.000000
   outer loop
     vertex -50.000000 -49.500000 49.500000
     vertex -50.000000 49.500000 49.500000
     vertex -50.000000 49.500000 -49.500000
   endloop
 endfacet
 facet normal -1.000000 0.000000 0.000000
   outer loop
     vertex -50.000000 -49.500000 49.500000
     vertex -50.000000 49.500000 -49.500000
     vertex -50.000000 -49.500000 -49.500000
   endloop
 endfacet
 facet normal 0.000000 1.000000 0.000000
   outer loop
     vertex 49.500000 50.000000 49.500000
     vertex 49.500000 50.000000 -49.500000
     vertex -49.500000 50.000000 -49.500000
   endloop
 endfacet
 facet normal 0.000000 1.000000 0.000000
   outer loop
     vertex 49.500000 50.000000 49.500000
     vertex -49.500000 50.000000 -49.500000
     vertex -49.500000 50.000000 49.500000
   endloop
 endfacet
 facet normal 0.000000 0.707107 -0.707107
   outer loop
     vertex 49.500000 50.000000 -49.500000
     vertex -49.500000 49.500000 -50.000000
     vertex -49.500000 50.000000 -49.500000
   endloop
 endfacet
 facet normal 0.000000 0.707107 -0.707107
   outer loop
     vertex 49.500000 50.000000 -49.500000
     vertex 49.500000 49.500000 -50.000000
     vertex -49.500000 49.500000 -50.000000
   endloop
 endfacet
 facet normal 0.577350 0.577350 -0.577350
   outer loop
     vertex 49.500000 50.000000 -49.500000
     vertex 50.000000 49.500000 -49.500000
     vertex 49.500000 49.500000 -50.000000
   endloop
 endfacet
 facet normal -0.577350 0.577350 -0.577350
   outer loop
     vertex -49.500000 50.000000 -49.500000
     vertex -49.500000 49.500000 -50.000000
     vertex -50.000000 49.500000 -49.500000
   endloop
 endfacet
 facet normal 0.707107 0.707107 -0.000000
   outer loop
     vertex 49.500000 50.000000 -49.500000
     vertex 49.500000 50.000000 49.500000
     vertex 50.000000 49.500000 49.500000
   endloop
 endfacet
 facet normal 0.707107 0.707107 -0.000000
   outer loop
     vertex 50.000000 49.500000 -49.500000
     vertex 49.500000 50.000000 -49.500000
     vertex 50.000000 49.500000 49.500000
   endloop
 endfacet
 facet normal 0.707107 0.000000 -0.707107
   outer loop
     vertex 50.000000 -49.500000 -49.500000
     vertex 49.500000 -49.500000 -50.000000
     vertex 49.500000 49.500000 -50.000000
   endloop
 endfacet
 facet normal 0.707107 0.000000 -0.707107
   outer loop
     vertex 50.000000 -49.500000 -49.500000
     vertex 49.500000 49.500000 -50.000000
     vertex 50.000000 49.500000 -49.500000
   endloop
 endfacet
 facet normal -0.707107 -0.000000 -0.707107
   outer loop
     vertex -50.000000 49.500000 -49.500000
     vertex -49.500000 -49.500000 -50.000000
     vertex -50.000000 -49.500000 -49.500000
   endloop
 endfacet
 facet normal -0.707107 0.000000 -0.707107
   outer loop
     vertex -50.000000 49.500000 -49.500000
     vertex -49.500000 49.500000 -50.000000
     vertex -49.500000 -49.500000 -50.000000
   endloop
 endfacet
 facet normal -0.707107 0.707107 0.000000
   outer loop
     vertex -50.000000 49.500000 -49.500000
     vertex -50.000000 49.500000 49.500000
     vertex -49.500000 50.000000 49.500000
   endloop
 endfacet
 facet normal -0.707107 0.707107 0.000000
   outer loop
     vertex -49.500000 50.000000 -49.500000
     vertex -50.000000 49.500000 -49.500000
     vertex -49.500000 50.000000 49.500000
   endloop
 endfacet
 facet normal 0.577350 0.577350 0.577350
   outer loop
     vertex 49.500000 50.000000 49.500000
     vertex 49.500000 49.500000 50.000000
     vertex 50.000000 49.500000 49.500000
   endloop
 endfacet
 facet normal 0.577350 -0.577350 -0.577350
   outer loop
     vertex 49.500000 -49.500000 -50.000000
     vertex 50.000000 -49.500000 -49.500000
     vertex 49.500000 -50.000000 -49.500000
   endloop
 endfacet
 facet normal -0.577350 -0.577350 -0.577350
   outer loop
     vertex -50.000000 -49.500000 -49.500000
     vertex -49.500000 -49.500000 -50.000000
     vertex -49.500000 -50.000000 -49.500000
   endloop
 endfacet
 facet normal -0.577350 0.577350 0.577350
   outer loop
     vertex -49.500000 49.500000 50.000000
     vertex -49.500000 50.000000 49.500000
     vertex -50.000000 49.500000 49.500000
   endloop
 endfacet
 facet normal -0.000000 0.707107 0.707107
   outer loop
     vertex -49.500000 50.000000 49.500000
     vertex 49.500000 49.500000 50.000000
     vertex 49.500000 50.000000 49.500000
   endloop
 endfacet
 facet normal -0.000000 0.707107 0.707107
   outer loop
     vertex -49.500000 49.500000 50.000000
     vertex 49.500000 49.500000 50.000000
     vertex -49.500000 50.000000 49.500000
   endloop
 endfacet
 facet normal 0.707107 0.000000 0.707107
   outer loop
     vertex 50.000000 49.500000 49.500000
     vertex 49.500000 -49.500000 50.000000
     vertex 50.000000 -49.500000 49.500000
   endloop
 endfacet
 facet normal 0.707107 0.000000 0.707107
   outer loop
     vertex 49.500000 49.500000 50.000000
     vertex 49.500000 -49.500000 50.000000
     vertex 50.000000 49.500000 49.500000
   endloop
 endfacet
 facet normal 0.707107 -0.707107 0.000000
   outer loop
     vertex 50.000000 -49.500000 -49.500000
     vertex 50.000000 -49.500000 49.500000
     vertex 49.500000 -50.000000 49.500000
   endloop
 endfacet
 facet normal 0.707107 -0.707107 0.000000
   outer loop
     vertex 49.500000 -50.000000 -49.500000
     vertex 50.000000 -49.500000 -49.500000
     vertex 49.500000 -50.000000 49.500000
   endloop
 endfacet
 facet normal 0.000000 -0.707107 -0.707107
   outer loop
     vertex -49.500000 -50.000000 -49.500000
     vertex 49.500000 -49.500000 -50.000000
     vertex 49.500000 -50.000000 -49.500000
   endloop
 endfacet
 facet normal 0.000000 -0.707107 -0.707107
   outer loop
     vertex -49.500000 -50.000000 -49.500000
     vertex -49.500000 -49.500000 -50.000000
     vertex 49.500000 -49.500000 -50.000000
   endloop
 endfacet
 facet normal -0.707107 -0.707107 0.000000
   outer loop
     vertex -49.500000 -50.000000 -49.500000
     vertex -49.500000 -50.000000 49.500000
     vertex -50.000000 -49.500000 49.500000
   endloop
 endfacet
 facet normal -0.707107 -0.707107 0.000000
   outer loop
     vertex -50.000000 -49.500000 -49.500000
     vertex -49.500000 -50.000000 -49.500000
     vertex -50.000000 -49.500000 49.500000
   endloop
 endfacet
 facet normal 0.000000 -0.707107 0.707107
   outer loop
     vertex 49.500000 -50.000000 49.500000
     vertex -49.500000 -49.500000 50.000000
     vertex -49.500000 -50.000000 49.500000
   endloop
 endfacet
 facet normal 0.000000 -0.707107 0.707107
   outer loop
     vertex 49.500000 -49.500000 50.000000
     vertex -49.500000 -49.500000 50.000000
     vertex 49.500000 -50.000000 49.500000
   endloop
 endfacet
 facet normal 0.000000 0.000000 -1.000000
   outer loop
     vertex -49.500000 49.500000 -50.000000
     vertex 49.500000 49.500000 -50.000000
     vertex 49.500000 -49.500000 -50.000000
   endloop
 endfacet
 facet normal 0.000000 0.000000 -1.000000
   outer loop
     vertex -49.500000 49.500000 -50.000000
     vertex 49.500000 -49.500000 -50.000000
     vertex -49.500000 -49.500000 -50.000000
   endloop
 endfacet
 facet normal 0.000000 0.000000 1.000000
   outer loop
     vertex -49.500000 49.500000 50.000000
     vertex -49.500000 -49.500000 50.000000
     vertex 49.500000 -49.500000 50.000000
   endloop
 endfacet
 facet normal -0.000000 0.000000 1.000000
   outer loop
     vertex -49.500000 49.500000 50.000000
     vertex 49.500000 -49.500000 50.000000
     vertex 49.500000 49.500000 50.000000
   endloop
 endfacet
 facet normal -0.000000 -1.000000 0.000000
   outer loop
     vertex 49.500000 -50.000000 49.500000
     vertex -49.500000 -50.000000 49.500000
     vertex -49.500000 -50.000000 -49.500000
   endloop
 endfacet
 facet normal 0.000000 -1.000000 -0.000000
   outer loop
     vertex 49.500000 -50.000000 49.500000
     vertex -49.500000 -50.000000 -49.500000
     vertex 49.500000 -50.000000 -49.500000
   endloop
 endfacet
 facet normal 1.000000 0.000000 0.000000
   outer loop
     vertex 50.000000 49.500000 49.500000
     vertex 50.000000 -49.500000 -49.500000
     vertex 50.000000 49.500000 -49.500000
   endloop
 endfacet
 facet normal 1.000000 0.000000 0.000000
   outer loop
     vertex 50.000000 49.500000 49.500000
     vertex 50.000000 -49.500000 49.500000
     vertex 50.000000 -49.500000 -49.500000
   endloop
 endfacet
endsolid shape
